<?xml version="1.0" encoding="UTF-8"?>
<svg id="Calque_2" data-name="Calque 2" xmlns="http://www.w3.org/2000/svg" xmlns:xlink="http://www.w3.org/1999/xlink" viewBox="0 0 260.03 304.41">
  <defs>
    <style>
      .cls-1 {
        fill: none;
      }

      .cls-2 {
        fill: #b1bcfc;
      }

      .cls-3 {
        clip-path: url(#clippath-1);
      }

      .cls-4 {
        clip-path: url(#clippath-3);
      }

      .cls-5 {
        clip-path: url(#clippath-2);
      }

      .cls-6 {
        fill: url(#Dégradé_sans_nom_18);
      }

      .cls-7 {
        fill: url(#Dégradé_sans_nom_18-2);
      }

      .cls-8 {
        clip-path: url(#clippath);
      }
    </style>
    <clipPath id="clippath">
      <path class="cls-1" d="M149.73,304.41c-15.88,0-31.52-7.51-41.25-21.51l-45.27-65.1c-3.15-4.53-2.03-10.77,2.5-13.92h0c4.53-3.15,10.77-2.03,13.92,2.5l45.27,65.1c10.46,15.04,32.24,17.63,45.95,4.25,3.47-3.38,6.06-7.61,7.51-12.24,2.87-9.15,1.38-18.73-3.97-26.43l-45.27-65.11c-3.15-4.53-2.03-10.77,2.5-13.92h0c4.53-3.15,10.77-2.03,13.92,2.5l45.27,65.11c8.38,12.05,11.07,26.89,7.36,41.28-2.58,10.02-8.27,19.04-16.2,25.69-9.51,7.98-20.94,11.78-32.25,11.78Z"/>
    </clipPath>
    <linearGradient id="Dégradé_sans_nom_18" data-name="Dégradé sans nom 18" x1="55.11" y1="131.22" x2="1472.75" y2="131.22" gradientUnits="userSpaceOnUse">
      <stop offset="0" stop-color="#286cd8"/>
      <stop offset="1" stop-color="#4420c3"/>
    </linearGradient>
    <clipPath id="clippath-1">
      <path class="cls-1" d="M123.29,146.4c-4.53,3.15-10.77,2.03-13.92-2.5l-45.27-65.11c-8.45-12.15-11.11-27.13-7.27-41.64,2.66-10.03,8.44-19.03,16.45-25.62C84.86,2,99.58-1.81,114.14.81c13.18,2.37,24.65,9.74,32.3,20.73l45.27,65.1c3.15,4.53,2.03,10.77-2.5,13.92h0c-4.53,3.15-10.77,2.03-13.92-2.5l-45.27-65.1c-4.52-6.5-11.27-10.89-19.03-12.39s-15.56.06-22.06,4.25c-7.09,4.58-11.85,11.73-13.33,20.01-1.42,7.93.33,15.93,4.92,22.55l45.27,65.11c3.15,4.53,2.03,10.77-2.5,13.92h0Z"/>
    </clipPath>
    <linearGradient id="Dégradé_sans_nom_18-2" data-name="Dégradé sans nom 18" x1="55.11" xlink:href="#Dégradé_sans_nom_18"/>
    <clipPath id="clippath-2">
      <path class="cls-1" d="M209.99,180.43c-2.98,0-5.99-.27-8.99-.81-13.18-2.37-24.65-9.74-32.3-20.73l-45.27-65.1c-3.15-4.53-2.03-10.77,2.5-13.92h0c4.53-3.15,10.77-2.03,13.92,2.5l45.27,65.1c4.6,6.61,11.5,11.04,19.42,12.47,7.92,1.43,15.93-.32,22.54-4.91,13.65-9.49,17.02-28.31,7.53-41.96l-45.27-65.11c-3.15-4.53-2.03-10.77,2.5-13.92h0c4.53-3.15,10.77-2.03,13.92,2.5l45.27,65.11c8.45,12.16,11.11,27.15,7.26,41.66-2.61,9.84-8.23,18.7-16.02,25.25-9.27,7.79-20.61,11.87-32.28,11.87Z"/>
    </clipPath>
    <clipPath id="clippath-3">
      <path class="cls-1" d="M68.15,277.71c-4.53,3.15-10.77,2.03-13.92-2.5L8.96,210.1c-15.79-22.71-10.16-54.02,12.54-69.8,22.7-15.78,54.01-10.15,69.8,12.56l45.27,65.1c3.15,4.53,2.03,10.77-2.5,13.92h0c-4.53,3.15-10.77,2.03-13.92-2.5l-45.27-65.1c-4.6-6.61-11.5-11.04-19.42-12.47-7.93-1.42-15.93.32-22.54,4.91-13.65,9.49-17.02,28.31-7.53,41.96l45.27,65.11c3.15,4.53,2.03,10.77-2.5,13.92h0Z"/>
    </clipPath>
  </defs>
  <g id="Calque_1-2" data-name="Calque 1">
    <g>
      <g class="cls-8">
        <rect class="cls-6" x="55.11" y="-101.95" width="1417.63" height="466.35"/>
      </g>
      <g class="cls-3">
        <rect class="cls-7" x="55.11" y="-101.95" width="1417.63" height="466.35"/>
      </g>
      <g class="cls-5">
        <rect class="cls-2" x="-80.83" y="-150.34" width="446.22" height="466.35"/>
      </g>
      <g class="cls-4">
        <rect class="cls-2" x="-94.77" y="-101.95" width="446.22" height="466.35"/>
      </g>
    </g>
  </g>
</svg>